<svg id="Layer_1" data-name="Layer 1" xmlns="http://www.w3.org/2000/svg" viewBox="0 0 350 48.34"><defs><style>.cls-1{fill:none;}.cls-2{fill:#fff;}</style></defs><rect class="cls-1" width="350" height="48.34"/><path class="cls-2" d="M8.55,29.1,4.48,33.55V46.37H1.34V9.69H4.48V29.76L22.19,9.69h4L10.58,27.17l17.11,19.2h-4Z" transform="translate(0 0.18)"/><path class="cls-2" d="M56.56,37.35H37l-3.69,9H29.83l15-36.68h3.9l15,36.68H60.25ZM38,34.49H55.57l-8.8-21.72Z" transform="translate(0 0.18)"/><path class="cls-2" d="M74.71,12.55h-12V9.69H89.89v2.86h-12V46.37H74.71Z" transform="translate(0 0.18)"/><path class="cls-2" d="M107.22,30.69l-14.57-21h3.79l12.37,18,12.38-18H125l-14.57,21V46.37h-3.19Z" transform="translate(0 0.18)"/><path class="cls-2" d="M144.62,9.69h15.07c6.1,0,10.12,3.57,10.12,9.35a8.34,8.34,0,0,1-6.44,8.41c3.91.6,7.15,4.73,7.15,9,0,6.1-4,9.9-10.56,9.9H144.62ZM159.3,26.13c4.73,0,7.21-3,7.21-6.76s-2.48-6.82-7.21-6.82H147.75V26.13Zm.22,17.38c4.84,0,7.7-2.81,7.7-7.26,0-3.74-2.58-7.26-7.7-7.26H147.75V43.51Z" transform="translate(0 0.18)"/><path class="cls-2" d="M194.83,9.08c10.72,0,17.82,8.25,17.82,19s-7.1,19-17.82,19S177,38.78,177,28.05,184.05,9.08,194.83,9.08Zm0,2.86c-8.91,0-14.52,6.82-14.52,16.11s5.61,16.12,14.52,16.12,14.52-6.88,14.52-16.12S203.63,11.94,194.83,11.94Zm-7.64-8a2,2,0,0,1,4.07,0,2,2,0,1,1-4.07,0Zm11.22,0a2,2,0,0,1,2-2,2.08,2.08,0,0,1,2.09,2,2.12,2.12,0,0,1-2.09,2A2.07,2.07,0,0,1,198.41,3.91Z" transform="translate(0 0.18)"/><path class="cls-2" d="M231.63,31.19h-8.09V46.37h-3.13V9.69H234.1c6.33,0,11.16,4,11.16,10.72S240.54,30.75,235.09,31l10.62,15.4h-3.8Zm2.2-18.64H223.54V28.33h10.29c4.84,0,8.13-3.3,8.13-7.92S238.67,12.55,233.83,12.55Z" transform="translate(0 0.18)"/><path class="cls-2" d="M256.21,14.69V46.37h-3.13V9.69h3.19l23,31.23V9.69h3.14V46.37h-3.08Z" transform="translate(0 0.18)"/><path class="cls-2" d="M291.52,9.69h23.26v2.86H294.66V26.13H314.4V29H294.66V43.51h20.12v2.86H291.52Z" transform="translate(0 0.18)"/><path class="cls-2" d="M333.76,31.19h-8.08V46.37h-3.14V9.69h13.7c6.32,0,11.16,4,11.16,10.72S342.67,30.75,337.22,31l10.62,15.4H344ZM336,12.55H325.68V28.33H336c4.84,0,8.14-3.3,8.14-7.92S340.8,12.55,336,12.55Z" transform="translate(0 0.18)"/></svg>