<svg id="Layer_1_copy_2" data-name="Layer 1 copy 2" xmlns="http://www.w3.org/2000/svg" viewBox="0 0 24 24"><defs><style>.cls-1{fill:none;}.cls-2{fill:#616161;}</style></defs><path id="background" class="cls-1" d="M0,0H24V24H0Z"/><path class="cls-2" d="M20,5.67V3.07l1-.92H9.17L3,8.15H8.56a5.37,5.37,0,0,0-1.37,3.62,5,5,0,0,0,4.73,5.15,4.49,4.49,0,0,0,3-1.14v1.28h0v.15a2.54,2.54,0,0,1-2.67,2.37,2.6,2.6,0,0,1-2.59-1.86l-1.93.74a4.59,4.59,0,0,0,4.53,3.16A4.6,4.6,0,0,0,17,17.16V17h0V7H16l3-3V5.67a1.13,1.13,0,0,0-.5,1v4.46a1.06,1.06,0,0,0,1,1.11h0a1.06,1.06,0,0,0,1-1.11V6.62A1.15,1.15,0,0,0,20,5.67ZM15.1,12a3.43,3.43,0,0,1-.21,1,2.84,2.84,0,0,1-2.62,2,3,3,0,0,1-2.82-3.17v0A3,3,0,0,1,12.23,8.6h0a2.88,2.88,0,0,1,2.62,2A3.7,3.7,0,0,1,15.1,12Z"/></svg>